<svg width="96" height="96" viewBox="0 0 96 96" fill="none" xmlns="http://www.w3.org/2000/svg">
  <defs>
    <linearGradient id="bg" x1="18" y1="10" x2="78" y2="86" gradientUnits="userSpaceOnUse">
      <stop stop-color="#171717" />
      <stop offset="1" stop-color="#050505" />
    </linearGradient>
    <linearGradient id="frame" x1="20" y1="18" x2="76" y2="78" gradientUnits="userSpaceOnUse">
      <stop stop-color="#FFFFFF" />
      <stop offset="1" stop-color="#A3A3A3" />
    </linearGradient>
    <linearGradient id="pane-light" x1="28" y1="28" x2="68" y2="68" gradientUnits="userSpaceOnUse">
      <stop stop-color="#F5F5F5" />
      <stop offset="1" stop-color="#D4D4D4" />
    </linearGradient>
    <linearGradient id="pane-dark" x1="30" y1="30" x2="66" y2="66" gradientUnits="userSpaceOnUse">
      <stop stop-color="#CFCFCF" />
      <stop offset="1" stop-color="#8E8E8E" />
    </linearGradient>
  </defs>
  <rect x="10" y="10" width="76" height="76" rx="24" fill="url(#bg)" />
  <rect x="11" y="11" width="74" height="74" rx="23" stroke="white" stroke-opacity="0.06" stroke-width="2" />
  <rect x="18" y="19" width="60" height="58" rx="18" fill="#050505" fill-opacity="0.28" stroke="url(#frame)" stroke-width="6" />
  <path d="M18 27C18 22.5817 21.5817 19 26 19H70" stroke="white" stroke-opacity="0.14" stroke-width="2" />
  <rect x="28" y="28" width="16" height="16" rx="5" fill="url(#pane-light)" />
  <rect x="52" y="28" width="16" height="16" rx="5" fill="url(#pane-dark)" />
  <rect x="28" y="52" width="16" height="16" rx="5" fill="url(#pane-dark)" />
  <rect x="52" y="52" width="16" height="16" rx="5" fill="url(#pane-light)" />
  <circle cx="48" cy="48" r="3.5" fill="#050505" />
  <circle cx="48" cy="48" r="1.25" fill="#EAEAEA" />
</svg>
